<?xml version="1.0" encoding="utf-8"?>
<!-- Generator: Adobe Illustrator 19.2.1, SVG Export Plug-In . SVG Version: 6.00 Build 0)  -->
<svg version="1.1" id="Layer_1" xmlns="http://www.w3.org/2000/svg" xmlns:xlink="http://www.w3.org/1999/xlink" x="0px" y="0px"
	 viewBox="0 0 419.7 120" style="enable-background:new 0 0 419.7 120;" xml:space="preserve">
<style type="text/css">
	.st0{fill:#139FDA;}
	.st1{fill:#032E61;}
</style>
<g id="Layer_2">
</g>
<g id="Layer_3">
</g>
<g>
	<path class="st0" d="M38.4,83.1h-3.7c-0.3-2.8-0.5-5.3-0.5-7.4h-0.2c-1.5,2.9-3.5,5.1-6,6.5c-2.6,1.4-5.5,2.1-8.8,2.1
		c-5.6,0-9.9-1.9-12.9-5.7c-3.1-3.8-4.6-8.8-4.6-14.9c0-3.9,0.7-7.4,2.2-10.5c1.5-3.1,3.6-5.6,6.3-7.4c2.7-1.8,5.9-2.7,9.6-2.7
		c3.2,0,5.9,0.6,8.2,1.7c2.3,1.1,4.3,2.7,6,4.7V27.8h3.9v46.9C37.9,77.1,38.1,79.9,38.4,83.1z M34,66.6V53.7
		c-1.7-2.5-3.7-4.3-5.9-5.6c-2.2-1.3-4.8-1.9-7.9-1.9c-2.9,0-5.5,0.8-7.7,2.3c-2.2,1.5-3.9,3.6-5,6.2c-1.2,2.6-1.8,5.6-1.8,8.9
		c0,5.2,1.3,9.4,3.8,12.6c2.5,3.2,6,4.8,10.4,4.8c2.8,0,5.3-0.6,7.4-1.9c2.1-1.3,3.8-3,4.9-5.2C33.5,71.7,34,69.2,34,66.6z"/>
	<path class="st0" d="M81.1,64.8H50.4c0.2,4.8,1.5,8.7,4,11.7c2.5,3,6,4.5,10.6,4.5c2.6,0,4.8-0.4,6.8-1.1c2-0.7,4-1.7,5.9-3.1
		l1.8,2.6c-2.1,1.6-4.4,2.8-6.8,3.6c-2.4,0.8-5,1.2-7.9,1.2c-5.8,0-10.4-1.9-13.6-5.7s-4.8-8.9-4.8-15.1c0-4,0.7-7.5,2.1-10.6
		c1.4-3.1,3.4-5.4,6.1-7.2c2.7-1.7,5.8-2.6,9.5-2.6c5.5,0,9.7,1.8,12.6,5.4c2.9,3.6,4.3,8.4,4.3,14.5C81.2,63.7,81.2,64.4,81.1,64.8
		z M77.4,61.8c-0.1-4.8-1.3-8.7-3.5-11.5c-2.2-2.8-5.5-4.2-9.8-4.2c-4.3,0-7.6,1.5-10,4.5c-2.4,3-3.7,6.7-3.8,11.2H77.4z"/>
	<path class="st0" d="M90,52.6c0-2.5-0.2-5.3-0.5-8.4h3.7c0.3,2.7,0.5,5.1,0.5,7.2h0.2c1.1-2.5,2.9-4.5,5.3-6
		c2.4-1.5,5.2-2.3,8.4-2.3c6.9,0,11.2,3.3,12.9,9.9h0.2c1.1-3.1,3-5.5,5.6-7.2c2.6-1.7,5.6-2.6,9-2.6c4.6,0,8.1,1.4,10.5,4.3
		s3.5,6.5,3.5,10.7v25.1h-3.9V58.5c0-3.4-0.9-6.3-2.7-8.7c-1.8-2.4-4.5-3.6-8.1-3.6c-2.7,0-5.1,0.7-7.1,2.2c-2,1.4-3.5,3.3-4.6,5.7
		c-1,2.3-1.6,4.9-1.6,7.6v21.5h-3.8V58.9c0-3.5-0.9-6.5-2.6-9c-1.7-2.5-4.4-3.7-8.1-3.7c-2.6,0-4.9,0.6-6.8,1.9
		c-2,1.3-3.5,2.9-4.5,5c-1,2.1-1.6,4.4-1.6,7v23H90V52.6z"/>
	<path class="st0" d="M195.2,63.5c0,4.1-0.7,7.7-2.2,10.8s-3.7,5.6-6.5,7.3c-2.8,1.7-6.3,2.6-10.3,2.6c-4,0-7.4-0.9-10.2-2.6
		c-2.8-1.7-5-4.2-6.5-7.3c-1.5-3.1-2.2-6.7-2.2-10.8c0-6.3,1.7-11.2,5-15c3.3-3.7,8-5.6,14-5.6c6,0,10.7,1.9,14,5.6
		C193.5,52.3,195.2,57.2,195.2,63.5z M161.2,63.5c0,5.2,1.3,9.4,3.8,12.7c2.5,3.2,6.2,4.8,11.1,4.8c5,0,8.7-1.6,11.3-4.8
		c2.6-3.2,3.8-7.4,3.8-12.7c0-5.2-1.3-9.4-3.8-12.6c-2.6-3.2-6.3-4.8-11.3-4.8c-4.9,0-8.6,1.6-11.1,4.8
		C162.5,54.1,161.2,58.3,161.2,63.5z"/>
	<path class="st1" d="M221.6,42.2c2.5,0,4.9,0.4,7.2,1.1c2.3,0.8,4.3,1.8,6.1,3.2l-2.7,4.6c-3-2.2-6.5-3.4-10.6-3.4
		c-4.3,0-7.5,1.4-9.7,4.2c-2.2,2.8-3.3,6.5-3.3,11.2c0,4.6,1.1,8.3,3.3,11.1c2.2,2.8,5.4,4.3,9.6,4.3c3.6,0,7.2-1.1,10.7-3.4
		l2.4,4.7c-4,2.9-8.5,4.3-13.6,4.3c-4.5,0-8.2-1-11-3c-2.9-2-4.9-4.6-6.2-7.8c-1.3-3.2-1.9-6.6-1.9-10.2c0-6.4,1.7-11.4,5.2-15.3
		C210.6,44.1,215.4,42.2,221.6,42.2z"/>
	<path class="st1" d="M275.1,65.6h-29.6c0.3,4.1,1.5,7.3,3.7,9.7c2.2,2.4,5.3,3.6,9.4,3.6c2.4,0,4.5-0.3,6.5-1
		c1.9-0.7,3.8-1.6,5.7-2.9l3,4.3c-2.2,1.6-4.6,2.8-7.2,3.7c-2.5,0.8-5.3,1.3-8.4,1.3c-6.1,0-10.9-1.9-14.3-5.8
		c-3.4-3.9-5.1-9-5.1-15.4c0-4.1,0.7-7.7,2.2-10.9c1.5-3.1,3.6-5.6,6.4-7.3c2.8-1.7,6.1-2.6,10.1-2.6c5.8,0,10.2,1.9,13.3,5.6
		c3.1,3.8,4.6,8.7,4.6,14.9C275.3,64.1,275.2,65,275.1,65.6z M268.8,60.5c-0.1-4-1.1-7.1-3.1-9.5c-1.9-2.4-4.7-3.6-8.4-3.6
		c-3.7,0-6.6,1.2-8.6,3.7c-2,2.5-3.1,5.6-3.3,9.4H268.8z"/>
	<path class="st1" d="M283.4,52.2c0-2.9-0.2-5.9-0.5-8.9h6.3c0.3,1.4,0.4,3.3,0.5,5.6h0.2c1.3-2,3.1-3.7,5.5-4.9
		c2.3-1.2,5.1-1.8,8.4-1.8c5,0,8.7,1.4,11.1,4.3s3.6,6.5,3.6,10.8v25.7h-6.6V58.7c0-3.2-0.8-5.8-2.3-7.9c-1.6-2.1-4.1-3.1-7.6-3.1
		c-3.6,0-6.5,1.2-8.6,3.6c-2.2,2.4-3.2,5.4-3.2,9v22.8h-6.6V52.2z"/>
	<path class="st1" d="M337.1,43.3h10.6v5.1h-10.6v24c0,4.3,2,6.4,5.9,6.4c1.4,0,2.7-0.2,3.9-0.5l1,4.9c-1.8,0.7-3.8,1-6.2,1
		c-3.5,0-6.2-1-8.3-2.9c-2-2-3-4.7-3-8.3V48.4h-7v-4.3l7-0.8v-9.8l6.7-2.3V43.3z"/>
	<path class="st1" d="M388,65.6h-29.6c0.3,4.1,1.5,7.3,3.7,9.7c2.2,2.4,5.3,3.6,9.4,3.6c2.4,0,4.5-0.3,6.5-1
		c1.9-0.7,3.8-1.6,5.7-2.9l3,4.3c-2.2,1.6-4.6,2.8-7.2,3.7c-2.5,0.8-5.3,1.3-8.4,1.3c-6.1,0-10.9-1.9-14.3-5.8
		c-3.4-3.9-5.1-9-5.1-15.4c0-4.1,0.7-7.7,2.2-10.9c1.5-3.1,3.6-5.6,6.4-7.3c2.8-1.7,6.1-2.6,10.1-2.6c5.8,0,10.2,1.9,13.3,5.6
		c3.1,3.8,4.6,8.7,4.6,14.9C388.1,64.1,388.1,65,388,65.6z M381.6,60.5c-0.1-4-1.1-7.1-3.1-9.5c-1.9-2.4-4.7-3.6-8.4-3.6
		c-3.7,0-6.6,1.2-8.6,3.7c-2,2.5-3.1,5.6-3.3,9.4H381.6z"/>
	<path class="st1" d="M396.3,52.2c0-2.9-0.2-5.9-0.5-8.9h6.3c0.3,1.8,0.4,3.9,0.5,6.3h0.2c2.3-5,6.5-7.4,12.5-7.4
		c0.4,0,1.2,0.1,2.3,0.2l-0.4,5.7c-0.5-0.1-1.3-0.2-2.4-0.2c-3.8,0-6.7,1.3-8.8,3.8c-2,2.6-3.1,5.9-3.1,9.9v21.4h-6.6V52.2z"/>
</g>
</svg>
