<?xml version="1.0" encoding="utf-8"?>
<!-- Generator: Adobe Illustrator 19.2.1, SVG Export Plug-In . SVG Version: 6.00 Build 0)  -->
<svg version="1.1" id="Layer_1" xmlns="http://www.w3.org/2000/svg" xmlns:xlink="http://www.w3.org/1999/xlink" x="0px" y="0px"
	 viewBox="0 0 351.7 55.9" style="enable-background:new 0 0 351.7 55.9;" xml:space="preserve">
<style type="text/css">
	.st0{fill:#FFFFFF;}
	.st1{fill:#1FBFF3;}
	.st2{opacity:0.9;}
	.st3{fill:#ECF0F3;}
</style>
<g id="Layer_2_1_">
</g>
<g id="Layer_2">
</g>
<g id="Layer_3">
</g>
<g>
	<g>
		<path class="st0" d="M177.8,27.8c0,4.2-3.1,7.5-7,7.5s-7-3.4-7-7.5s3.1-7.5,7-7.5C174.6,20.4,177.8,23.7,177.8,27.8z"/>
	</g>
	<g>
		<path class="st1" d="M179.5,29.6c0.5,0,1-0.1,1.4-0.2c0.1-0.8,0.1-1.7,0-2.5c-0.5-0.1-0.9-0.1-1.4-0.2l-0.2-0.8l-0.3-0.8
			c0.4-0.3,0.8-0.6,1.2-0.9c-0.3-0.8-0.8-1.5-1.2-2.2c-0.5,0.1-0.9,0.4-1.4,0.5c-0.2-0.2-0.3-0.4-0.5-0.6s-0.4-0.4-0.6-0.5
			c0.2-0.4,0.4-0.9,0.5-1.4c-0.6-0.5-1.4-0.9-2.2-1.3c-0.3,0.4-0.6,0.8-0.9,1.2c-0.3-0.1-0.5-0.1-0.8-0.3c-0.3-0.1-0.5-0.1-0.8-0.2
			c0-0.5-0.1-1-0.2-1.4c-0.8-0.1-1.7-0.1-2.5,0c-0.1,0.5-0.2,0.9-0.2,1.4l-0.8,0.2l-0.8,0.3c-0.3-0.4-0.6-0.8-0.9-1.2
			c-0.8,0.3-1.5,0.7-2.2,1.2c0.1,0.5,0.4,0.9,0.5,1.4c-0.2,0.2-0.4,0.3-0.6,0.5c-0.2,0.2-0.4,0.4-0.5,0.6c-0.4-0.2-0.9-0.4-1.4-0.5
			c-0.5,0.6-0.9,1.4-1.3,2.2c0.4,0.3,0.8,0.6,1.2,0.9c-0.1,0.3-0.2,0.5-0.3,0.8s-0.1,0.5-0.2,0.8c-0.5,0-1,0.1-1.4,0.2
			c-0.1,0.8-0.1,1.7,0,2.5c0.5,0.1,0.9,0.2,1.4,0.2l0.2,0.8l0.3,0.8c-0.4,0.3-0.8,0.6-1.2,0.9c0.3,0.8,0.8,1.5,1.2,2.2
			c0.5-0.1,0.9-0.4,1.4-0.5c0.2,0.2,0.3,0.4,0.5,0.6c0.2,0.2,0.4,0.4,0.6,0.5c-0.2,0.4-0.4,0.9-0.5,1.3c0.6,0.5,1.4,0.9,2.2,1.3
			c0.3-0.4,0.6-0.8,0.9-1.2c0.3,0.1,0.5,0.2,0.8,0.3s0.5,0.1,0.8,0.2c0,0.5,0.1,1,0.2,1.4c0.8,0.1,1.7,0.1,2.5,0
			c0.1-0.5,0.1-0.9,0.2-1.4l0.8-0.2l0.8-0.3c0.3,0.4,0.6,0.8,0.9,1.2c0.8-0.3,1.5-0.8,2.2-1.2c-0.1-0.5-0.4-0.9-0.5-1.4
			c0.2-0.2,0.4-0.3,0.6-0.5c0.2-0.2,0.4-0.4,0.5-0.6c0.4,0.2,0.9,0.4,1.4,0.5c0.5-0.6,0.9-1.4,1.3-2.2c-0.4-0.3-0.8-0.6-1.2-0.9
			c0.1-0.3,0.2-0.5,0.3-0.8C179.4,30.1,179.4,29.8,179.5,29.6z M170.3,34.9l0.5-5.8l-2.6,0.4l3.3-8.3L171,27l2.6-0.4L170.3,34.9z"/>
	</g>
</g>
<g class="st2">
	<path class="st3" d="M187.5,31.5l0.6-0.8c0.4,0.3,0.8,0.5,1.2,0.7c0.5,0.2,0.9,0.2,1.4,0.2c0.7,0,1.1-0.2,1.6-0.5
		c0.4-0.3,0.6-0.8,0.6-1.3c0-0.4-0.1-0.8-0.3-1s-0.5-0.5-0.8-0.6c-0.3-0.2-0.8-0.3-1.3-0.5c-0.9-0.2-1.5-0.5-2-1
		c-0.5-0.4-0.7-1-0.7-1.7c0-0.8,0.3-1.4,0.9-1.9c0.6-0.5,1.4-0.7,2.3-0.7c0.6,0,1.1,0.1,1.6,0.2s0.9,0.4,1.3,0.7l-0.5,0.8
		c-0.4-0.2-0.8-0.5-1.1-0.5c-0.4-0.2-0.8-0.2-1.2-0.2c-0.6,0-1.1,0.2-1.4,0.4c-0.4,0.2-0.5,0.6-0.5,1.1s0.2,0.8,0.5,1.1
		c0.4,0.2,0.9,0.5,1.7,0.7c1,0.2,1.7,0.6,2.2,1.1s0.8,1.1,0.8,1.9c0,0.6-0.2,1.1-0.5,1.5c-0.3,0.5-0.7,0.8-1.2,1s-1.1,0.3-1.7,0.3
		C189.4,32.7,188.4,32.3,187.5,31.5z"/>
	<path class="st3" d="M202.1,29c0,0.7-0.2,1.4-0.4,1.9s-0.7,1-1.2,1.3c-0.5,0.3-1.1,0.5-1.8,0.5s-1.3-0.2-1.8-0.5s-0.9-0.8-1.2-1.3
		s-0.4-1.2-0.4-1.9c0-1.1,0.3-2,0.9-2.6c0.6-0.7,1.4-1,2.5-1c0.8,0,1.4,0.2,1.9,0.5s0.9,0.8,1.2,1.3C201.9,27.6,202.1,28.3,202.1,29
		z M196.4,29c0,0.8,0.2,1.4,0.5,2c0.4,0.5,0.9,0.8,1.7,0.8s1.4-0.2,1.7-0.8c0.4-0.5,0.5-1.1,0.5-2s-0.2-1.4-0.5-2
		c-0.4-0.5-0.9-0.8-1.7-0.8s-1.4,0.2-1.7,0.8S196.4,28.2,196.4,29z"/>
	<path class="st3" d="M205,23v9.5h-1.1V23H205z"/>
	<path class="st3" d="M207.2,29.8v-4.1h1.1v4c0,0.6,0.2,1.1,0.4,1.5c0.3,0.4,0.7,0.6,1.3,0.6s1.1-0.2,1.5-0.7s0.5-1.1,0.5-1.7v-3.6
		h1.1V31c0,0.5,0,1,0.1,1.5h-1.1c-0.1-0.3-0.1-0.7-0.1-1.1l0,0c-0.5,0.8-1.3,1.3-2.3,1.3c-0.8,0-1.5-0.2-1.9-0.8
		C207.4,31.3,207.2,30.6,207.2,29.8z"/>
	<path class="st3" d="M216.9,25.6h1.8v0.9h-1.8v4.1c0,0.8,0.3,1.1,1,1.1c0.2,0,0.5,0,0.7-0.1l0.2,0.8c-0.3,0.2-0.7,0.2-1.1,0.2
		c-0.6,0-1.1-0.2-1.4-0.5c-0.4-0.3-0.5-0.8-0.5-1.4v-4.2h-1.2v-0.8l1.2-0.2v-1.7l1.1-0.4V25.6L216.9,25.6z"/>
	<path class="st3" d="M220.1,23.3c0-0.5,0.2-0.8,0.8-0.8c0.5,0,0.8,0.2,0.8,0.8c0,0.2-0.1,0.4-0.2,0.5c-0.1,0.2-0.3,0.2-0.5,0.2
		c-0.3,0-0.5-0.1-0.6-0.2C220.2,23.6,220.1,23.5,220.1,23.3z M221.5,32.4h-1.1v-6.8h1.1V32.4z"/>
	<path class="st3" d="M230.1,29c0,0.7-0.2,1.4-0.4,1.9s-0.7,1-1.2,1.3c-0.5,0.3-1.1,0.5-1.8,0.5s-1.3-0.2-1.8-0.5s-0.9-0.8-1.2-1.3
		s-0.4-1.2-0.4-1.9c0-1.1,0.3-2,0.9-2.6c0.6-0.7,1.4-1,2.5-1c0.8,0,1.4,0.2,1.9,0.5s0.9,0.8,1.2,1.3C229.9,27.6,230.1,28.3,230.1,29
		z M224.5,29c0,0.8,0.2,1.4,0.5,2c0.4,0.5,0.9,0.8,1.7,0.8s1.4-0.2,1.7-0.8c0.4-0.5,0.5-1.1,0.5-2s-0.2-1.4-0.5-2
		c-0.4-0.5-0.9-0.8-1.7-0.8s-1.4,0.2-1.7,0.8C224.7,27.5,224.5,28.2,224.5,29z"/>
	<path class="st3" d="M231.9,27.1c0-0.5,0-1-0.1-1.5h1.1c0.1,0.2,0.1,0.5,0.1,1l0,0c0.2-0.4,0.5-0.6,0.9-0.8
		c0.4-0.2,0.9-0.3,1.4-0.3c0.8,0,1.5,0.2,1.9,0.8c0.5,0.5,0.6,1.1,0.6,1.9v4.4h-1.1v-4.1c0-0.5-0.2-1-0.4-1.4
		c-0.3-0.4-0.7-0.5-1.3-0.5s-1.1,0.2-1.5,0.6s-0.5,0.9-0.5,1.5v3.9h-1.1L231.9,27.1L231.9,27.1z"/>
	<path class="st3" d="M244.2,26.1l-0.5,0.7c-0.5-0.4-1.1-0.5-1.7-0.5c-0.5,0-0.8,0.1-1,0.2s-0.4,0.4-0.4,0.7c0,0.2,0.1,0.4,0.2,0.5
		c0.1,0.2,0.2,0.2,0.5,0.4c0.2,0.1,0.6,0.2,1.1,0.3c0.7,0.2,1.2,0.5,1.6,0.8c0.3,0.3,0.5,0.8,0.5,1.3c0,0.7-0.2,1.2-0.8,1.6
		s-1.1,0.5-1.9,0.5c-1,0-1.8-0.2-2.5-0.8l0.5-0.7c0.3,0.2,0.6,0.4,0.9,0.5c0.3,0.1,0.6,0.2,1,0.2c0.5,0,0.8-0.1,1.1-0.3
		c0.2-0.2,0.4-0.5,0.4-0.8c0-0.2-0.1-0.5-0.2-0.6s-0.2-0.3-0.5-0.4s-0.6-0.2-1.1-0.3c-0.7-0.2-1.2-0.5-1.5-0.8s-0.5-0.8-0.5-1.3
		c0-0.6,0.2-1.1,0.7-1.4c0.5-0.4,1.1-0.5,1.8-0.5C242.8,25.4,243.6,25.7,244.2,26.1z"/>
	<path class="st3" d="M255.2,23.9h-4.5V27h4v0.9h-4v3.5h4.8v1h-5.9V23h5.7L255.2,23.9L255.2,23.9z"/>
	<path class="st3" d="M256.9,27.1c0-0.5,0-1-0.1-1.5h1.1c0.1,0.2,0.1,0.5,0.1,1l0,0c0.2-0.4,0.5-0.6,0.9-0.8
		c0.4-0.2,0.9-0.3,1.4-0.3c0.8,0,1.5,0.2,1.9,0.8c0.5,0.5,0.6,1.1,0.6,1.9v4.4h-1.1v-4.1c0-0.5-0.2-1-0.4-1.4
		c-0.3-0.4-0.7-0.5-1.3-0.5c-0.6,0-1.1,0.2-1.5,0.6s-0.5,0.9-0.5,1.5v3.9h-1.1V27.1L256.9,27.1z"/>
	<path class="st3" d="M264.2,33.8c0-0.4,0.1-0.8,0.3-1.1s0.6-0.6,1.1-0.8c-0.5-0.2-0.7-0.5-0.7-0.9c0-0.2,0.1-0.5,0.2-0.7
		c0.2-0.2,0.5-0.3,0.8-0.5c-0.5-0.2-0.8-0.5-1-0.8c-0.2-0.4-0.4-0.8-0.4-1.4c0-0.8,0.2-1.4,0.8-1.8c0.5-0.5,1.2-0.7,2.1-0.7
		c0.2,0,0.5,0,0.6,0.1c0.2,0,0.4,0.1,0.6,0.2h2.3v0.9l-1.5-0.2c0.2,0.2,0.4,0.4,0.5,0.7c0.2,0.3,0.2,0.6,0.2,1
		c0,0.8-0.2,1.3-0.8,1.7c-0.5,0.4-1.2,0.6-2,0.6c-0.5,0-0.8,0.1-1.1,0.2c-0.2,0.2-0.4,0.3-0.4,0.5c0,0.4,0.5,0.5,1.3,0.5
		c1.3,0,2.2,0.2,2.7,0.5c0.6,0.3,0.8,0.8,0.8,1.4c0,0.8-0.3,1.4-1,1.8c-0.7,0.5-1.5,0.6-2.7,0.6c-1,0-1.7-0.2-2.3-0.5
		C264.3,34.8,264.2,34.5,264.2,33.8z M269.8,33.5c0-0.3-0.1-0.5-0.3-0.7c-0.2-0.2-0.5-0.3-1.1-0.4c-0.5-0.1-1.1-0.2-2-0.2
		c-0.4,0.2-0.7,0.4-0.9,0.6c-0.2,0.2-0.3,0.5-0.3,0.8c0,0.8,0.7,1.3,2,1.3c0.8,0,1.4-0.2,1.9-0.4C269.6,34.4,269.8,34,269.8,33.5z
		 M269.2,27.9c0-0.5-0.2-0.9-0.5-1.2c-0.3-0.3-0.8-0.5-1.3-0.5s-1,0.2-1.3,0.5s-0.5,0.7-0.5,1.1c0,0.5,0.2,0.9,0.5,1.2
		c0.3,0.3,0.8,0.5,1.4,0.5C268.6,29.4,269.2,28.9,269.2,27.9z"/>
	<path class="st3" d="M272.3,23.3c0-0.5,0.2-0.8,0.8-0.8c0.5,0,0.8,0.2,0.8,0.8c0,0.2-0.1,0.4-0.2,0.5c-0.2,0.2-0.3,0.2-0.5,0.2
		c-0.3,0-0.5-0.1-0.6-0.2C272.4,23.6,272.3,23.5,272.3,23.3z M273.6,32.4h-1.1v-6.8h1.1V32.4z"/>
	<path class="st3" d="M275.9,27.1c0-0.5,0-1-0.1-1.5h1.1c0.1,0.2,0.1,0.5,0.1,1l0,0c0.2-0.4,0.5-0.6,0.9-0.8
		c0.4-0.2,0.9-0.3,1.4-0.3c0.8,0,1.5,0.2,1.9,0.8c0.5,0.5,0.6,1.1,0.6,1.9v4.4h-1v-4.1c0-0.5-0.2-1-0.4-1.4
		c-0.3-0.4-0.7-0.5-1.3-0.5c-0.6,0-1.1,0.2-1.5,0.6s-0.5,0.9-0.5,1.5v3.9H276L275.9,27.1L275.9,27.1z"/>
	<path class="st3" d="M289.9,29.4h-5c0.1,0.7,0.2,1.3,0.6,1.7s0.9,0.6,1.6,0.6c0.4,0,0.8-0.1,1.1-0.2c0.4-0.1,0.7-0.3,1-0.5l0.5,0.8
		c-0.4,0.3-0.8,0.5-1.2,0.6c-0.5,0.2-0.9,0.2-1.4,0.2c-1.1,0-1.9-0.3-2.4-1c-0.6-0.7-0.9-1.5-0.9-2.6c0-0.7,0.2-1.4,0.4-1.9
		s0.6-1,1.1-1.3s1.1-0.5,1.7-0.5c1,0,1.7,0.3,2.3,1c0.5,0.7,0.8,1.5,0.8,2.6C289.9,29.1,289.9,29.3,289.9,29.4z M288.7,28.5
		c0-0.7-0.2-1.2-0.5-1.7c-0.3-0.4-0.8-0.6-1.4-0.6s-1.1,0.2-1.5,0.6s-0.5,1-0.5,1.6L288.7,28.5L288.7,28.5z"/>
	<path class="st3" d="M297.4,29.4h-5c0.1,0.7,0.2,1.3,0.6,1.7s0.9,0.6,1.6,0.6c0.4,0,0.8-0.1,1.1-0.2c0.4-0.1,0.7-0.3,1-0.5l0.5,0.8
		c-0.4,0.3-0.8,0.5-1.2,0.6c-0.5,0.2-0.9,0.2-1.4,0.2c-1.1,0-1.9-0.3-2.4-1c-0.6-0.7-0.9-1.5-0.9-2.6c0-0.7,0.2-1.4,0.4-1.9
		s0.6-1,1.1-1.3s1.1-0.5,1.7-0.5c1,0,1.7,0.3,2.3,1c0.5,0.7,0.8,1.5,0.8,2.6C297.4,29.1,297.4,29.3,297.4,29.4z M296.3,28.5
		c0-0.7-0.2-1.2-0.5-1.7c-0.3-0.4-0.8-0.6-1.4-0.6s-1.1,0.2-1.5,0.6s-0.5,1-0.5,1.6L296.3,28.5L296.3,28.5z"/>
	<path class="st3" d="M299.2,27.1c0-0.5,0-1-0.1-1.5h1.1c0.1,0.3,0.1,0.7,0.1,1.1l0,0c0.4-0.8,1.1-1.3,2.1-1.3c0.1,0,0.2,0,0.4,0.1
		l-0.1,1c-0.1,0-0.2,0-0.5,0c-0.7,0-1.1,0.2-1.5,0.7s-0.5,1-0.5,1.7v3.7H299v-5.4h0.2V27.1z"/>
	<path class="st3" d="M303.9,23.3c0-0.5,0.2-0.8,0.8-0.8c0.5,0,0.8,0.2,0.8,0.8c0,0.2-0.1,0.4-0.2,0.5c-0.2,0.2-0.3,0.2-0.5,0.2
		c-0.3,0-0.5-0.1-0.6-0.2C304,23.6,303.9,23.5,303.9,23.3z M305.2,32.4h-1.1v-6.8h1.1V32.4z"/>
	<path class="st3" d="M307.5,27.1c0-0.5,0-1-0.1-1.5h1.1c0.1,0.2,0.1,0.5,0.1,1l0,0c0.2-0.4,0.5-0.6,0.9-0.8
		c0.4-0.2,0.9-0.3,1.4-0.3c0.8,0,1.5,0.2,1.9,0.8c0.5,0.5,0.6,1.1,0.6,1.9v4.4h-1.1v-4.1c0-0.5-0.2-1-0.4-1.4
		c-0.3-0.4-0.7-0.5-1.3-0.5c-0.6,0-1.1,0.2-1.5,0.6s-0.5,0.9-0.5,1.5v3.9h-1.1V27.1L307.5,27.1z"/>
	<path class="st3" d="M314.8,33.8c0-0.4,0.1-0.8,0.3-1.1s0.6-0.6,1.1-0.8c-0.5-0.2-0.7-0.5-0.7-0.9c0-0.2,0.1-0.5,0.2-0.7
		c0.2-0.2,0.5-0.3,0.8-0.5c-0.5-0.2-0.8-0.5-1-0.8c-0.2-0.4-0.4-0.8-0.4-1.4c0-0.8,0.2-1.4,0.8-1.8c0.5-0.5,1.2-0.7,2.1-0.7
		c0.2,0,0.5,0,0.6,0.1c0.2,0,0.4,0.1,0.6,0.2h2.3v0.9l-1.5-0.2c0.2,0.2,0.4,0.4,0.5,0.7c0.2,0.3,0.2,0.6,0.2,1
		c0,0.8-0.2,1.3-0.8,1.7c-0.5,0.4-1.2,0.6-2,0.6c-0.5,0-0.8,0.1-1.1,0.2c-0.2,0.2-0.4,0.3-0.4,0.5c0,0.4,0.5,0.5,1.3,0.5
		c1.3,0,2.2,0.2,2.7,0.5c0.6,0.3,0.8,0.8,0.8,1.4c0,0.8-0.3,1.4-1,1.8c-0.6,0.5-1.5,0.6-2.7,0.6c-1,0-1.7-0.2-2.3-0.5
		C314.9,34.8,314.8,34.5,314.8,33.8z M320.4,33.5c0-0.3-0.1-0.5-0.3-0.7c-0.2-0.2-0.5-0.3-1.1-0.4c-0.5-0.1-1.1-0.2-2-0.2
		c-0.4,0.2-0.7,0.4-0.9,0.6c-0.2,0.2-0.3,0.5-0.3,0.8c0,0.8,0.7,1.3,2,1.3c0.8,0,1.4-0.2,1.9-0.4C320.2,34.4,320.4,34,320.4,33.5z
		 M319.8,27.9c0-0.5-0.2-0.9-0.5-1.2c-0.3-0.3-0.8-0.5-1.3-0.5s-1,0.2-1.3,0.5s-0.5,0.7-0.5,1.1c0,0.5,0.2,0.9,0.5,1.2
		c0.3,0.3,0.8,0.5,1.4,0.5C319.2,29.4,319.8,28.9,319.8,27.9z"/>
	<path class="st3" d="M331.9,32.4l-2.2-3.5h-2v3.5h-1.1V23h3.1c0.6,0,1.2,0.2,1.7,0.4c0.5,0.2,0.9,0.6,1.2,1.1
		c0.3,0.5,0.5,1.1,0.5,1.7c0,0.8-0.2,1.4-0.6,1.8c-0.4,0.5-0.9,0.8-1.6,1l2.4,3.7L331.9,32.4L331.9,32.4z M329.6,28
		c0.6,0,1.1-0.2,1.5-0.5s0.6-0.8,0.6-1.5s-0.2-1.2-0.6-1.6c-0.5-0.4-0.9-0.5-1.6-0.5h-1.9V28H329.6z"/>
	<path class="st3" d="M340.2,29.1H338v2.2h-1v-2.2h-2.2v-0.9h2.2V26h1v2.2h2.2V29.1z"/>
	<path class="st3" d="M350.7,27.6c0,1.5-0.5,2.7-1.3,3.5s-2,1.2-3.6,1.2h-3.1V23h3c1.6,0,2.8,0.4,3.6,1.2
		C350.2,24.9,350.7,26,350.7,27.6z M343.9,23.9v7.5h1.7c1.2,0,2.2-0.3,2.8-0.9c0.7-0.6,1-1.6,1-2.9c0-2.5-1.3-3.8-3.8-3.8
		L343.9,23.9L343.9,23.9z"/>
</g>
<g>
	<path class="st1" d="M127.4,23.3c1.1-2.1,2.2-3.2,4.4-3.2c2.4,0,4.4,1.9,4.4,4.2c0,4.2-4.4,8.4-8.8,12.6c-4.4-4.2-8.8-8.4-8.8-12.6
		c0-2.3,2-4.2,4.4-4.2C125.2,20.2,126.3,21.2,127.4,23.3z"/>
</g>
<g class="st2">
	<path class="st3" d="M13.3,32.8h-1.2v-8.2l0,0l-3.4,8.2H7.8l-3.4-8.2l0,0v8.2H3.2v-9.6H5l3.2,8l0,0l3.2-8h1.8v9.6H13.3z"/>
	<path class="st3" d="M15.1,30.9c0-0.9,0.3-1.5,1-1.9c0.6-0.3,1.6-0.5,2.9-0.5c0.3,0,0.6,0,0.7,0v-0.4c0-0.5-0.1-0.9-0.4-1.2
		c-0.3-0.3-0.7-0.4-1.3-0.4c-0.7,0-1.4,0.2-2.1,0.6l-0.4-0.8c0.8-0.5,1.6-0.7,2.5-0.7c1,0,1.7,0.2,2.1,0.7s0.7,1.1,0.7,2.1v2.8
		c0,0.5,0,1,0.1,1.5h-1.1c-0.1-0.4-0.1-0.7-0.1-0.9l0,0c-0.3,0.4-0.6,0.7-1,0.8c-0.4,0.2-0.9,0.3-1.5,0.3c-0.7,0-1.2-0.2-1.6-0.5
		S15.1,31.5,15.1,30.9z M19.7,30.2v-0.9h-0.6c-0.7,0-1.2,0-1.6,0.1s-0.7,0.2-0.9,0.5c-0.2,0.2-0.3,0.5-0.3,0.9s0.1,0.7,0.4,0.9
		c0.2,0.2,0.6,0.3,1,0.3s0.8-0.1,1.1-0.3c0.3-0.2,0.6-0.4,0.7-0.7C19.6,30.8,19.7,30.5,19.7,30.2z"/>
	<path class="st3" d="M29.2,32.8h-1.1c-0.1-0.4-0.1-0.7-0.1-1l0,0c-0.5,0.8-1.3,1.2-2.5,1.2c-1,0-1.7-0.3-2.2-1s-0.8-1.5-0.8-2.6
		c0-0.7,0.1-1.3,0.4-1.9s0.6-1,1.1-1.3s1-0.5,1.7-0.5c0.9,0,1.7,0.3,2.2,0.9v-3.4h1.2v8.1C29.1,31.7,29.2,32.2,29.2,32.8z M28,29.8
		v-2.2c-0.3-0.3-0.6-0.6-0.9-0.8s-0.7-0.3-1.2-0.3c-0.7,0-1.2,0.3-1.6,0.8s-0.6,1.2-0.6,2s0.2,1.5,0.6,2s0.9,0.7,1.5,0.7
		s1.2-0.2,1.6-0.6S28,30.4,28,29.8z"/>
	<path class="st3" d="M37.3,29.7h-5.1c0,0.7,0.3,1.3,0.6,1.7s0.9,0.6,1.6,0.6c0.4,0,0.8-0.1,1.1-0.2s0.7-0.3,1-0.5L37,32
		c-0.4,0.3-0.8,0.5-1.2,0.6s-0.9,0.2-1.5,0.2c-1.1,0-1.9-0.3-2.5-1c-0.6-0.7-0.9-1.6-0.9-2.7c0-0.7,0.1-1.3,0.4-1.9
		c0.3-0.5,0.6-1,1.1-1.3c0.5-0.3,1.1-0.5,1.7-0.5c1,0,1.8,0.3,2.3,1s0.8,1.5,0.8,2.6C37.3,29.4,37.3,29.6,37.3,29.7z M36.2,28.8
		c0-0.7-0.2-1.2-0.5-1.7s-0.8-0.6-1.4-0.6c-0.6,0-1.1,0.2-1.5,0.6s-0.5,1-0.6,1.6h4V28.8z"/>
	<path class="st3" d="M42.4,23.5c0-0.5,0.3-0.7,0.8-0.7s0.7,0.2,0.7,0.7c0,0.2-0.1,0.4-0.2,0.5s-0.3,0.2-0.6,0.2s-0.5-0.1-0.6-0.2
		S42.4,23.7,42.4,23.5z M43.8,32.8h-1.2v-6.9h1.2V32.8z"/>
	<path class="st3" d="M46.1,27.4c0-0.5,0-1-0.1-1.5h1.1c0,0.2,0.1,0.6,0.1,1l0,0c0.2-0.4,0.5-0.6,0.9-0.8c0.4-0.2,0.9-0.3,1.4-0.3
		c0.9,0,1.5,0.3,1.9,0.8s0.6,1.1,0.6,1.9V33h-1v-4.2c0-0.6-0.1-1-0.4-1.4c-0.3-0.4-0.7-0.5-1.3-0.5s-1.1,0.2-1.5,0.6
		s-0.6,0.9-0.6,1.6v4H46L46.1,27.4L46.1,27.4z"/>
	<path class="st3" d="M59.8,31.8h1.1v0.9h-3.5v-0.9h1.1V24h-1.1v-0.9h3.5V24h-1.1V31.8z"/>
	<path class="st3" d="M62.8,27.4c0-0.5,0-1-0.1-1.5h1.1c0,0.2,0.1,0.6,0.1,1l0,0c0.2-0.4,0.5-0.6,0.9-0.8c0.4-0.2,0.9-0.3,1.4-0.3
		c0.9,0,1.5,0.3,1.9,0.8s0.6,1.1,0.6,1.9V33h-1.2v-4.2c0-0.6-0.1-1-0.4-1.4s-0.7-0.5-1.3-0.5c-0.6,0-1.1,0.2-1.5,0.6
		s-0.6,0.9-0.6,1.6v4h-1.2v-5.7H62.8z"/>
	<path class="st3" d="M77.3,32.8h-1.1c-0.1-0.4-0.1-0.7-0.1-1l0,0c-0.5,0.8-1.3,1.2-2.5,1.2c-1,0-1.7-0.3-2.2-1s-0.8-1.5-0.8-2.6
		c0-0.7,0.1-1.3,0.4-1.9s0.6-1,1.1-1.3s1-0.5,1.7-0.5c0.9,0,1.7,0.3,2.2,0.9v-3.4h1.2v8.1C77.2,31.7,77.3,32.2,77.3,32.8z
		 M76.1,29.8v-2.2c-0.3-0.3-0.6-0.6-0.9-0.8s-0.7-0.3-1.2-0.3c-0.7,0-1.2,0.3-1.6,0.8s-0.6,1.2-0.6,2s0.2,1.5,0.6,2s0.9,0.7,1.5,0.7
		s1.2-0.2,1.6-0.6S76.1,30.4,76.1,29.8z"/>
	<path class="st3" d="M81.7,34.4c-0.2,0.6-0.5,1.1-0.8,1.4s-0.8,0.4-1.3,0.4c-0.4,0-0.7-0.1-1-0.2l0.2-0.9c0.2,0.1,0.4,0.1,0.6,0.1
		c0.3,0,0.6-0.1,0.8-0.3s0.3-0.5,0.5-0.9l0.5-1.4l-2.7-6.9h1.2l2,5.7l0,0l1.8-5.7h1.2L81.7,34.4z"/>
	<path class="st3" d="M96.6,32.8h-1.3l-1.8-5.7l0,0l-1.8,5.7h-1.3l-1.9-6.9h1.2l1.4,5.6l0,0l1.7-5.6H94l1.8,5.6l0,0l1.4-5.6h1.2
		L96.6,32.8z"/>
	<path class="st3" d="M99.8,23.5c0-0.5,0.3-0.7,0.8-0.7s0.7,0.2,0.7,0.7c0,0.2-0.1,0.4-0.2,0.5s-0.3,0.2-0.6,0.2
		c-0.3,0-0.5-0.1-0.6-0.2S99.8,23.7,99.8,23.5z M101.1,32.8h-1.2v-6.9h1.2V32.8z"/>
	<path class="st3" d="M104.8,25.9h1.8v0.9h-1.8V31c0,0.7,0.3,1.1,1,1.1c0.2,0,0.5,0,0.7-0.1l0.2,0.9c-0.3,0.1-0.7,0.2-1.1,0.2
		c-0.6,0-1.1-0.2-1.4-0.5s-0.5-0.8-0.5-1.4v-4.3h-1.2V26l1.2-0.1v-1.7l1.2-0.4L104.8,25.9L104.8,25.9z"/>
	<path class="st3" d="M108.3,23.2h1.2v3.7l0,0c0.2-0.3,0.5-0.6,0.9-0.8c0.4-0.2,0.9-0.3,1.4-0.3c0.9,0,1.5,0.3,1.9,0.8
		s0.6,1.1,0.6,1.9V33h-1.2v-4.2c0-0.6-0.1-1-0.4-1.4s-0.7-0.5-1.3-0.5c-0.6,0-1.1,0.2-1.5,0.6s-0.6,0.9-0.6,1.6v4h-1.2v-9.9H108.3z"
		/>
</g>
<g class="st2">
	<path class="st3" d="M148.7,29.3c0,0.7-0.1,1.3-0.4,1.9c-0.3,0.6-0.6,1-1.1,1.3c-0.5,0.3-1.1,0.5-1.8,0.5c-0.9,0-1.6-0.3-2.2-0.9
		l-0.1,0.7h-0.9v-9.6h1.2v3.7l0,0c0.2-0.4,0.5-0.7,0.9-0.9s0.9-0.3,1.4-0.3c0.7,0,1.2,0.2,1.7,0.5s0.8,0.8,1,1.3
		C148.6,28,148.7,28.6,148.7,29.3z M147.5,29.3c0-0.8-0.2-1.5-0.5-2c-0.4-0.5-0.9-0.7-1.5-0.7c-0.4,0-0.8,0.1-1.1,0.3
		c-0.3,0.2-0.6,0.5-0.8,0.8s-0.3,0.7-0.3,1.1v2.3c0.3,0.3,0.6,0.5,0.9,0.7c0.3,0.1,0.7,0.2,1.1,0.2c0.7,0,1.3-0.2,1.7-0.8
		C147.3,30.8,147.5,30.1,147.5,29.3z"/>
	<path class="st3" d="M152.6,34.4c-0.2,0.6-0.5,1.1-0.8,1.4s-0.8,0.4-1.3,0.4c-0.4,0-0.7-0.1-1-0.2l0.2-0.9c0.2,0.1,0.4,0.1,0.6,0.1
		c0.3,0,0.6-0.1,0.8-0.3s0.3-0.5,0.5-0.9l0.5-1.4l-2.7-6.9h1.2l2,5.7l0,0l1.8-5.7h1.2L152.6,34.4z"/>
</g>
</svg>
